<mxfile host="app.diagrams.net" modified="2022-01-08T16:24:54.522Z" agent="5.0 (Macintosh; Intel Mac OS X 10_15_7) AppleWebKit/537.36 (KHTML, like Gecko) Chrome/96.0.4664.110 Safari/537.36" etag="gByen8ngtDogqoSjI7Y4" version="16.2.4" type="github">
  <diagram id="XudfJn3Po80QzpkaA8Kc" name="第 1 页">
    <mxGraphModel dx="2256" dy="749" grid="1" gridSize="10" guides="1" tooltips="1" connect="1" arrows="1" fold="1" page="1" pageScale="1" pageWidth="850" pageHeight="1100" math="0" shadow="0">
      <root>
        <mxCell id="0" />
        <mxCell id="1" parent="0" />
        <mxCell id="_19977oniscihQ7JhCu1-26" style="edgeStyle=orthogonalEdgeStyle;curved=1;rounded=0;orthogonalLoop=1;jettySize=auto;html=1;exitX=1;exitY=0.5;exitDx=0;exitDy=0;entryX=0.5;entryY=1;entryDx=0;entryDy=0;entryPerimeter=0;" edge="1" parent="1" source="_19977oniscihQ7JhCu1-6" target="_19977oniscihQ7JhCu1-9">
          <mxGeometry relative="1" as="geometry" />
        </mxCell>
        <mxCell id="_19977oniscihQ7JhCu1-6" value="Udp-log-server" style="rounded=0;whiteSpace=wrap;html=1;fillColor=#e6d0de;gradientColor=#d5739d;strokeColor=#996185;" vertex="1" parent="1">
          <mxGeometry x="40" y="60" width="120" height="60" as="geometry" />
        </mxCell>
        <mxCell id="_19977oniscihQ7JhCu1-27" style="edgeStyle=orthogonalEdgeStyle;curved=1;rounded=0;orthogonalLoop=1;jettySize=auto;html=1;exitX=1;exitY=0.5;exitDx=0;exitDy=0;" edge="1" parent="1" source="_19977oniscihQ7JhCu1-7">
          <mxGeometry relative="1" as="geometry">
            <mxPoint x="240" y="180" as="targetPoint" />
            <Array as="points">
              <mxPoint x="200" y="270" />
              <mxPoint x="200" y="180" />
            </Array>
          </mxGeometry>
        </mxCell>
        <mxCell id="_19977oniscihQ7JhCu1-7" value="&lt;span&gt;Udp-log-server&lt;/span&gt;" style="rounded=0;whiteSpace=wrap;html=1;fillColor=#e6d0de;gradientColor=#d5739d;strokeColor=#996185;" vertex="1" parent="1">
          <mxGeometry x="40" y="240" width="120" height="60" as="geometry" />
        </mxCell>
        <mxCell id="_19977oniscihQ7JhCu1-13" value="" style="edgeStyle=orthogonalEdgeStyle;rounded=0;orthogonalLoop=1;jettySize=auto;html=1;" edge="1" parent="1" source="_19977oniscihQ7JhCu1-8" target="_19977oniscihQ7JhCu1-9">
          <mxGeometry relative="1" as="geometry" />
        </mxCell>
        <mxCell id="_19977oniscihQ7JhCu1-8" value="&lt;span&gt;Udp-log-server&lt;/span&gt;" style="rounded=0;whiteSpace=wrap;html=1;fillColor=#e6d0de;gradientColor=#d5739d;strokeColor=#996185;dashed=1;" vertex="1" parent="1">
          <mxGeometry x="40" y="150" width="120" height="60" as="geometry" />
        </mxCell>
        <mxCell id="_19977oniscihQ7JhCu1-28" style="edgeStyle=orthogonalEdgeStyle;curved=1;rounded=0;orthogonalLoop=1;jettySize=auto;html=1;exitX=0.5;exitY=0;exitDx=0;exitDy=0;exitPerimeter=0;entryX=0;entryY=0.5;entryDx=0;entryDy=0;" edge="1" parent="1" source="_19977oniscihQ7JhCu1-9" target="_19977oniscihQ7JhCu1-11">
          <mxGeometry relative="1" as="geometry" />
        </mxCell>
        <mxCell id="_19977oniscihQ7JhCu1-29" style="edgeStyle=orthogonalEdgeStyle;curved=1;rounded=0;orthogonalLoop=1;jettySize=auto;html=1;exitX=0.5;exitY=0;exitDx=0;exitDy=0;exitPerimeter=0;" edge="1" parent="1" source="_19977oniscihQ7JhCu1-9">
          <mxGeometry relative="1" as="geometry">
            <mxPoint x="480" y="90" as="targetPoint" />
            <Array as="points">
              <mxPoint x="440" y="180" />
              <mxPoint x="440" y="90" />
            </Array>
          </mxGeometry>
        </mxCell>
        <mxCell id="_19977oniscihQ7JhCu1-30" style="edgeStyle=orthogonalEdgeStyle;curved=1;rounded=0;orthogonalLoop=1;jettySize=auto;html=1;exitX=0.5;exitY=0;exitDx=0;exitDy=0;exitPerimeter=0;entryX=0;entryY=0.5;entryDx=0;entryDy=0;" edge="1" parent="1" source="_19977oniscihQ7JhCu1-9" target="_19977oniscihQ7JhCu1-12">
          <mxGeometry relative="1" as="geometry" />
        </mxCell>
        <mxCell id="_19977oniscihQ7JhCu1-9" value="Kafka Cluster" style="shape=cylinder3;whiteSpace=wrap;html=1;boundedLbl=1;backgroundOutline=1;size=15;direction=south;fillColor=#dae8fc;strokeColor=#6c8ebf;strokeWidth=1;gradientColor=#7ea6e0;" vertex="1" parent="1">
          <mxGeometry x="240" y="150" width="160" height="60" as="geometry" />
        </mxCell>
        <mxCell id="_19977oniscihQ7JhCu1-25" style="edgeStyle=orthogonalEdgeStyle;curved=1;rounded=0;orthogonalLoop=1;jettySize=auto;html=1;exitX=1;exitY=0.5;exitDx=0;exitDy=0;" edge="1" parent="1" source="_19977oniscihQ7JhCu1-10">
          <mxGeometry relative="1" as="geometry">
            <mxPoint x="710" y="180" as="targetPoint" />
            <Array as="points">
              <mxPoint x="650" y="90" />
              <mxPoint x="650" y="180" />
            </Array>
          </mxGeometry>
        </mxCell>
        <mxCell id="_19977oniscihQ7JhCu1-10" value="Data Syncer" style="rounded=0;whiteSpace=wrap;html=1;fillColor=#fff2cc;gradientColor=#ffd966;strokeColor=#d6b656;" vertex="1" parent="1">
          <mxGeometry x="481" y="60" width="120" height="60" as="geometry" />
        </mxCell>
        <mxCell id="_19977oniscihQ7JhCu1-20" style="edgeStyle=orthogonalEdgeStyle;rounded=0;orthogonalLoop=1;jettySize=auto;html=1;exitX=1;exitY=0.5;exitDx=0;exitDy=0;entryX=0;entryY=0.5;entryDx=0;entryDy=0;entryPerimeter=0;" edge="1" parent="1" source="_19977oniscihQ7JhCu1-11" target="_19977oniscihQ7JhCu1-14">
          <mxGeometry relative="1" as="geometry" />
        </mxCell>
        <mxCell id="_19977oniscihQ7JhCu1-11" value="Data Syncer" style="rounded=0;whiteSpace=wrap;html=1;fillColor=#fff2cc;gradientColor=#ffd966;strokeColor=#d6b656;dashed=1;" vertex="1" parent="1">
          <mxGeometry x="481" y="150" width="120" height="60" as="geometry" />
        </mxCell>
        <mxCell id="_19977oniscihQ7JhCu1-22" style="edgeStyle=orthogonalEdgeStyle;curved=1;rounded=0;orthogonalLoop=1;jettySize=auto;html=1;exitX=1;exitY=0.5;exitDx=0;exitDy=0;entryX=0;entryY=0.5;entryDx=0;entryDy=0;entryPerimeter=0;" edge="1" parent="1" source="_19977oniscihQ7JhCu1-12" target="_19977oniscihQ7JhCu1-14">
          <mxGeometry relative="1" as="geometry" />
        </mxCell>
        <mxCell id="_19977oniscihQ7JhCu1-12" value="Data Syncer" style="rounded=0;whiteSpace=wrap;html=1;fillColor=#fff2cc;gradientColor=#ffd966;strokeColor=#d6b656;" vertex="1" parent="1">
          <mxGeometry x="481" y="240" width="120" height="60" as="geometry" />
        </mxCell>
        <mxCell id="_19977oniscihQ7JhCu1-14" value="DB数据库/存储" style="shape=cylinder3;whiteSpace=wrap;html=1;boundedLbl=1;backgroundOutline=1;size=15;fillColor=#d5e8d4;gradientColor=#97d077;strokeColor=#82b366;" vertex="1" parent="1">
          <mxGeometry x="710" y="140" width="100" height="80" as="geometry" />
        </mxCell>
        <mxCell id="_19977oniscihQ7JhCu1-17" value="WAF引擎" style="rounded=0;whiteSpace=wrap;html=1;fillColor=#f8cecc;gradientColor=#ea6b66;strokeColor=#b85450;" vertex="1" parent="1">
          <mxGeometry x="-80" y="60" width="120" height="60" as="geometry" />
        </mxCell>
        <mxCell id="_19977oniscihQ7JhCu1-18" value="WAF引擎" style="rounded=0;whiteSpace=wrap;html=1;fillColor=#f8cecc;gradientColor=#ea6b66;strokeColor=#b85450;dashed=1;" vertex="1" parent="1">
          <mxGeometry x="-80" y="150" width="120" height="60" as="geometry" />
        </mxCell>
        <mxCell id="_19977oniscihQ7JhCu1-19" value="WAF引擎" style="rounded=0;whiteSpace=wrap;html=1;fillColor=#f8cecc;gradientColor=#ea6b66;strokeColor=#b85450;" vertex="1" parent="1">
          <mxGeometry x="-80" y="240" width="120" height="60" as="geometry" />
        </mxCell>
      </root>
    </mxGraphModel>
  </diagram>
</mxfile>
